<?xml version="1.0" standalone="no"?>
<!DOCTYPE svg PUBLIC "-//W3C//DTD SVG 20010904//EN"
 "http://www.w3.org/TR/2001/REC-SVG-20010904/DTD/svg10.dtd">
<svg version="1.0" xmlns="http://www.w3.org/2000/svg"
 width="1094.000000pt" height="1094.000000pt" viewBox="0 0 1094.000000 1094.000000"
 preserveAspectRatio="xMidYMid meet">
<metadata>
Created by potrace 1.14, written by Peter Selinger 2001-2017
</metadata>
<g transform="translate(0.000000,1094.000000) scale(0.100000,-0.100000)"
fill="#000000" stroke="none">
<path d="M3560 10919 c0 -11 67 -275 149 -587 82 -312 182 -691 221 -842 75
-285 88 -323 115 -334 9 -3 435 -6 946 -6 l929 0 0 -1379 0 -1380 58 -11 c560
-110 1007 -308 1391 -616 450 -361 801 -899 957 -1463 149 -538 134 -1182 -37
-1685 -129 -376 -320 -568 -637 -643 -61 -14 -118 -18 -272 -18 -288 1 -348
16 -1300 325 -804 261 -939 300 -1200 346 -655 114 -1084 -56 -1319 -523 -72
-145 -177 -446 -205 -588 -8 -44 -23 -122 -32 -172 -9 -51 -19 -93 -24 -93
-10 0 -193 207 -264 299 -307 400 -504 873 -589 1411 -31 198 -31 614 1 815
27 175 69 346 128 526 322 985 978 1639 1974 1969 96 32 236 72 310 90 74 17
141 34 148 36 9 3 12 206 12 974 l0 970 -500 0 -500 0 0 -624 0 -623 -25 -25
c-14 -14 -46 -33 -73 -43 -96 -36 -371 -174 -497 -250 -662 -398 -1217 -1010
-1546 -1700 -183 -386 -297 -780 -356 -1230 -25 -198 -25 -709 0 -910 26 -195
62 -387 103 -543 246 -943 751 -1680 1535 -2243 68 -49 151 -103 183 -119 l59
-30 2071 0 2071 0 40 21 c67 36 299 205 428 311 159 131 417 391 539 544 411
513 700 1124 817 1727 57 294 65 384 65 732 0 275 -3 344 -22 490 -109 818
-391 1486 -877 2072 -109 132 -366 390 -495 498 -323 269 -686 493 -1027 636
-74 30 -83 37 -88 64 -3 17 -4 491 -3 1055 l4 1025 76 285 c42 157 124 467
182 690 152 583 197 753 202 773 5 16 -91 17 -1910 17 l-1916 0 0 -21z"/>
<path d="M5330 5951 c-176 -58 -258 -238 -180 -394 105 -210 401 -213 504 -5
21 42 26 66 26 128 0 120 -47 197 -154 252 -44 23 -153 33 -196 19z"/>
<path d="M6406 5574 c-376 -84 -626 -387 -626 -759 0 -129 24 -228 87 -355 39
-81 60 -109 142 -191 86 -86 108 -102 201 -147 126 -61 216 -82 348 -82 479 0
846 445 757 918 -55 291 -267 521 -555 602 -100 29 -261 35 -354 14z"/>
<path d="M4257 5529 c-61 -14 -137 -58 -192 -110 -303 -286 -53 -785 363 -728
88 13 167 53 233 118 232 233 130 633 -183 717 -58 15 -162 17 -221 3z"/>
<path d="M3390 4423 c-103 -16 -250 -100 -325 -186 -52 -60 -107 -168 -126
-247 -44 -186 15 -393 151 -531 75 -75 132 -111 229 -144 270 -92 565 32 695
292 77 154 77 353 0 507 -77 154 -226 270 -392 305 -50 10 -178 13 -232 4z"/>
<path d="M4977 4180 c-89 -23 -173 -92 -218 -180 -33 -64 -34 -204 -2 -272 30
-66 96 -133 162 -165 48 -24 68 -28 141 -28 68 0 94 5 131 23 75 37 125 87
161 159 59 121 40 264 -48 362 -60 66 -131 101 -220 106 -38 2 -86 0 -107 -5z"/>
<path d="M7423 3746 c-141 -46 -225 -164 -224 -315 0 -148 89 -264 236 -306
191 -56 389 87 403 291 6 88 -13 149 -66 219 -74 98 -233 149 -349 111z"/>
<path d="M6115 3526 c-151 -37 -266 -149 -307 -295 -44 -161 0 -321 121 -434
251 -235 661 -88 714 255 20 131 -24 260 -123 359 -65 65 -114 93 -202 114
-75 17 -135 18 -203 1z"/>
</g>
</svg>
